# xmcd
#
# Track frame offsets:
#	150
#	13468
#	23827
#	39051
#	48281
#	63583
#	65363
#	70244
#	81131
#	97580
#	108586
#	119470
#	134575
#	138672
#	148877
#	156495
#	167409
#	178155
#	188129
#	200008
#	203320
#	208257
#	216575
#	232528
#
# Disc length: 3238 seconds
#
# Revision: 0
# Processed by: cddbd v1.5.2PL0 Copyright (c) Steve Scherf et al.
# Submitted via: EZCDAudioConverter 1.5.4.1
#
DISCID=630ca418
DTITLE=Tammy Wynette - Tammy Wynette and George Jones - Disc 1
DYEAR=2010
DGENRE=Country
TTITLE0=My Man
TTITLE1=Another Chance
TTITLE2=Till I Make It On My Own
TTITLE3=Rocky Top
TTITLE4=Alive And Well
TTITLE5=What A Difference You Make In My Life
TTITLE6=You Light Up My Life
TTITLE7=Making Love
TTITLE8=You And Me
TTITLE9=Take Me To Your World
TTITLE10=Womanhood
TTITLE11=Crying In The Rain
TTITLE12=Apartment #9
TTITLE13=I Don't Want To Play House
TTITLE14=Your Good Girl's Gonna Go Bad
TTITLE15=D.I.V.O.R.C.E.
TTITLE16=Singing My Song
TTITLE17=Fairy Tales
TTITLE18=Stand By Your Man
TTITLE19=Amazing Grace
TTITLE20=I'll Fly Away
TTITLE21=Will The Circle Be Unbroken
TTITLE22=Let's Call It A Day Today
TTITLE23=Heart Over Mind
EXTD=
EXTT0=
EXTT1=
EXTT2=
EXTT3=
EXTT4=
EXTT5=
EXTT6=
EXTT7=
EXTT8=
EXTT9=
EXTT10=
EXTT11=
EXTT12=
EXTT13=
EXTT14=
EXTT15=
EXTT16=
EXTT17=
EXTT18=
EXTT19=
EXTT20=
EXTT21=
EXTT22=
EXTT23=
PLAYORDER=
